<?xml version="1.0" encoding="UTF-8"?>
<!DOCTYPE svg
PUBLIC "-//W3C//DTD SVG 1.1//EN"
       "http://www.w3.org/Graphics/SVG/1.1/DTD/svg11.dtd">
<svg viewBox="15 -4 1250 771" width="1235px" height="775px" xmlns="http://www.w3.org/2000/svg" version="1.1">
   <line x1="521" y1="417" x2="531" y2="417" style="stroke:#bbb;stroke-width:1;"/>
   <line x1="690" y1="464" x2="700" y2="464" style="stroke:#bbb;stroke-width:1;"/>
   <line x1="531" y1="417" x2="690" y2="464" style="stroke:#bbb;stroke-width:1;"/>
   <line x1="528.5" y1="417" x2="524.96446609407" y2="420.53553390593" style="stroke:#bbb;stroke-width:2;"/>
   <line x1="528.5" y1="417" x2="524.96446609407" y2="413.46446609407" style="stroke:#bbb;stroke-width:2;"/>
   <line x1="695" y1="464" x2="691.46446609407" y2="467.53553390593" style="stroke:#bbb;stroke-width:2;"/>
   <line x1="695" y1="464" x2="691.46446609407" y2="460.46446609407" style="stroke:#bbb;stroke-width:2;"/>
   <line x1="647" y1="272" x2="637" y2="272" style="stroke:#c00;stroke-width:1;"/>
   <line x1="531" y1="257" x2="521" y2="257" style="stroke:#c00;stroke-width:1;"/>
   <line x1="637" y1="272" x2="531" y2="257" style="stroke:#c00;stroke-width:1;"/>
   <line x1="639.5" y1="272" x2="643.03553390593" y2="275.53553390593" style="stroke:#c00;stroke-width:2;"/>
   <line x1="639.5" y1="272" x2="643.03553390593" y2="268.46446609407" style="stroke:#c00;stroke-width:2;"/>
   <line x1="526" y1="257" x2="529.53553390593" y2="260.53553390593" style="stroke:#c00;stroke-width:2;"/>
   <line x1="526" y1="257" x2="529.53553390593" y2="253.46446609407" style="stroke:#c00;stroke-width:2;"/>
   <line x1="775" y1="292" x2="785" y2="292" style="stroke:#cb0;stroke-width:1;"/>
   <line x1="897" y1="269" x2="907" y2="269" style="stroke:#cb0;stroke-width:1;"/>
   <line x1="785" y1="292" x2="897" y2="269" style="stroke:#cb0;stroke-width:1;"/>
   <line x1="782.5" y1="292" x2="778.96446609407" y2="295.53553390593" style="stroke:#cb0;stroke-width:2;"/>
   <line x1="782.5" y1="292" x2="778.96446609407" y2="288.46446609407" style="stroke:#cb0;stroke-width:2;"/>
   <line x1="902" y1="269" x2="898.46446609407" y2="272.53553390593" style="stroke:#cb0;stroke-width:2;"/>
   <line x1="902" y1="269" x2="898.46446609407" y2="265.46446609407" style="stroke:#cb0;stroke-width:2;"/>
   <line x1="590" y1="109" x2="600" y2="109" style="stroke:#bbb;stroke-width:1;"/>
   <line x1="688" y1="47" x2="698" y2="47" style="stroke:#bbb;stroke-width:1;"/>
   <line x1="600" y1="109" x2="688" y2="47" style="stroke:#bbb;stroke-width:1;"/>
   <line x1="597.5" y1="109" x2="593.96446609407" y2="112.53553390593" style="stroke:#bbb;stroke-width:2;"/>
   <line x1="597.5" y1="109" x2="593.96446609407" y2="105.46446609407" style="stroke:#bbb;stroke-width:2;"/>
   <line x1="693" y1="47" x2="689.46446609407" y2="50.535533905933" style="stroke:#bbb;stroke-width:2;"/>
   <line x1="693" y1="47" x2="689.46446609407" y2="43.464466094067" style="stroke:#bbb;stroke-width:2;"/>
   <line x1="375" y1="115" x2="385" y2="115" style="stroke:#0bf;stroke-width:1;"/>
   <line x1="488" y1="49" x2="498" y2="49" style="stroke:#0bf;stroke-width:1;"/>
   <line x1="385" y1="115" x2="488" y2="49" style="stroke:#0bf;stroke-width:1;"/>
   <line x1="382.5" y1="115" x2="378.96446609407" y2="118.53553390593" style="stroke:#0bf;stroke-width:2;"/>
   <line x1="382.5" y1="115" x2="378.96446609407" y2="111.46446609407" style="stroke:#0bf;stroke-width:2;"/>
   <line x1="493" y1="49" x2="489.46446609407" y2="52.535533905933" style="stroke:#0bf;stroke-width:2;"/>
   <line x1="493" y1="49" x2="489.46446609407" y2="45.464466094067" style="stroke:#0bf;stroke-width:2;"/>
   <line x1="289" y1="135" x2="279" y2="135" style="stroke:#cb0;stroke-width:1;"/>
   <line x1="171" y1="341" x2="161" y2="341" style="stroke:#cb0;stroke-width:1;"/>
   <line x1="279" y1="135" x2="171" y2="341" style="stroke:#cb0;stroke-width:1;"/>
   <line x1="281.5" y1="135" x2="285.03553390593" y2="138.53553390593" style="stroke:#cb0;stroke-width:2;"/>
   <line x1="281.5" y1="135" x2="285.03553390593" y2="131.46446609407" style="stroke:#cb0;stroke-width:2;"/>
   <line x1="166" y1="341" x2="169.53553390593" y2="344.53553390593" style="stroke:#cb0;stroke-width:2;"/>
   <line x1="166" y1="341" x2="169.53553390593" y2="337.46446609407" style="stroke:#cb0;stroke-width:2;"/>
   <line x1="795" y1="107" x2="805" y2="107" style="stroke:#c00;stroke-width:1;"/>
   <line x1="909" y1="55" x2="919" y2="55" style="stroke:#c00;stroke-width:1;"/>
   <line x1="805" y1="107" x2="909" y2="55" style="stroke:#c00;stroke-width:1;"/>
   <line x1="802.5" y1="107" x2="798.96446609407" y2="110.53553390593" style="stroke:#c00;stroke-width:2;"/>
   <line x1="802.5" y1="107" x2="798.96446609407" y2="103.46446609407" style="stroke:#c00;stroke-width:2;"/>
   <line x1="914" y1="55" x2="910.46446609407" y2="58.535533905933" style="stroke:#c00;stroke-width:2;"/>
   <line x1="914" y1="55" x2="910.46446609407" y2="51.464466094067" style="stroke:#c00;stroke-width:2;"/>
   <line x1="507" y1="621" x2="497" y2="621" style="stroke:#333;stroke-width:1;"/>
   <line x1="531" y1="257" x2="521" y2="257" style="stroke:#333;stroke-width:1;"/>
   <line x1="497" y1="621" x2="531" y2="257" style="stroke:#333;stroke-width:1;"/>
   <line x1="499.5" y1="621" x2="503.03553390593" y2="624.53553390593" style="stroke:#333;stroke-width:2;"/>
   <line x1="499.5" y1="621" x2="503.03553390593" y2="617.46446609407" style="stroke:#333;stroke-width:2;"/>
   <line x1="526" y1="257" x2="529.53553390593" y2="260.53553390593" style="stroke:#333;stroke-width:2;"/>
   <line x1="526" y1="257" x2="529.53553390593" y2="253.46446609407" style="stroke:#333;stroke-width:2;"/>
   <line x1="652" y1="641" x2="662" y2="641" style="stroke:#0bf;stroke-width:1;"/>
   <line x1="725" y1="626" x2="735" y2="626" style="stroke:#0bf;stroke-width:1;"/>
   <line x1="662" y1="641" x2="725" y2="626" style="stroke:#0bf;stroke-width:1;"/>
   <line x1="659.5" y1="641" x2="655.96446609407" y2="644.53553390593" style="stroke:#0bf;stroke-width:2;"/>
   <line x1="659.5" y1="641" x2="655.96446609407" y2="637.46446609407" style="stroke:#0bf;stroke-width:2;"/>
   <line x1="730" y1="626" x2="726.46446609407" y2="629.53553390593" style="stroke:#0bf;stroke-width:2;"/>
   <line x1="730" y1="626" x2="726.46446609407" y2="622.46446609407" style="stroke:#0bf;stroke-width:2;"/>
   <line x1="34" y1="665" x2="24" y2="665" style="stroke:#bbb;stroke-width:1;"/>
   <line x1="20" y1="341" x2="30" y2="341" style="stroke:#bbb;stroke-width:1;"/>
   <line x1="24" y1="665" x2="20" y2="341" style="stroke:#bbb;stroke-width:1;"/>
   <line x1="26.5" y1="665" x2="30.035533905933" y2="668.53553390593" style="stroke:#bbb;stroke-width:2;"/>
   <line x1="26.5" y1="665" x2="30.035533905933" y2="661.46446609407" style="stroke:#bbb;stroke-width:2;"/>
   <line x1="25" y1="341" x2="21.464466094067" y2="344.53553390593" style="stroke:#bbb;stroke-width:2;"/>
   <line x1="25" y1="341" x2="21.464466094067" y2="337.46446609407" style="stroke:#bbb;stroke-width:2;"/>
   <line x1="120" y1="685" x2="130" y2="685" style="stroke:#0bf;stroke-width:1;"/>
   <line x1="414" y1="257" x2="424" y2="257" style="stroke:#0bf;stroke-width:1;"/>
   <line x1="130" y1="685" x2="414" y2="257" style="stroke:#0bf;stroke-width:1;"/>
   <line x1="127.5" y1="685" x2="123.96446609407" y2="688.53553390593" style="stroke:#0bf;stroke-width:2;"/>
   <line x1="127.5" y1="685" x2="123.96446609407" y2="681.46446609407" style="stroke:#0bf;stroke-width:2;"/>
   <line x1="419" y1="257" x2="415.46446609407" y2="260.53553390593" style="stroke:#0bf;stroke-width:2;"/>
   <line x1="419" y1="257" x2="415.46446609407" y2="253.46446609407" style="stroke:#0bf;stroke-width:2;"/>
   <line x1="254" y1="637" x2="244" y2="637" style="stroke:#bbb;stroke-width:1;"/>
   <line x1="171" y1="341" x2="161" y2="341" style="stroke:#bbb;stroke-width:1;"/>
   <line x1="244" y1="637" x2="171" y2="341" style="stroke:#bbb;stroke-width:1;"/>
   <line x1="246.5" y1="637" x2="250.03553390593" y2="640.53553390593" style="stroke:#bbb;stroke-width:2;"/>
   <line x1="246.5" y1="637" x2="250.03553390593" y2="633.46446609407" style="stroke:#bbb;stroke-width:2;"/>
   <line x1="166" y1="341" x2="169.53553390593" y2="344.53553390593" style="stroke:#bbb;stroke-width:2;"/>
   <line x1="166" y1="341" x2="169.53553390593" y2="337.46446609407" style="stroke:#bbb;stroke-width:2;"/>
   <line x1="254" y1="657" x2="244" y2="657" style="stroke:#b0b;stroke-width:1;"/>
   <line x1="171" y1="341" x2="161" y2="341" style="stroke:#b0b;stroke-width:1;"/>
   <line x1="244" y1="657" x2="171" y2="341" style="stroke:#b0b;stroke-width:1;"/>
   <line x1="246.5" y1="657" x2="250.03553390593" y2="660.53553390593" style="stroke:#b0b;stroke-width:2;"/>
   <line x1="246.5" y1="657" x2="250.03553390593" y2="653.46446609407" style="stroke:#b0b;stroke-width:2;"/>
   <line x1="166" y1="341" x2="169.53553390593" y2="344.53553390593" style="stroke:#b0b;stroke-width:2;"/>
   <line x1="166" y1="341" x2="169.53553390593" y2="337.46446609407" style="stroke:#b0b;stroke-width:2;"/>
   <line x1="374" y1="677" x2="384" y2="677" style="stroke:#c00;stroke-width:1;"/>
   <line x1="497" y1="601" x2="507" y2="601" style="stroke:#c00;stroke-width:1;"/>
   <line x1="384" y1="677" x2="497" y2="601" style="stroke:#c00;stroke-width:1;"/>
   <line x1="381.5" y1="677" x2="377.96446609407" y2="680.53553390593" style="stroke:#c00;stroke-width:2;"/>
   <line x1="381.5" y1="677" x2="377.96446609407" y2="673.46446609407" style="stroke:#c00;stroke-width:2;"/>
   <line x1="502" y1="601" x2="498.46446609407" y2="604.53553390593" style="stroke:#c00;stroke-width:2;"/>
   <line x1="502" y1="601" x2="498.46446609407" y2="597.46446609407" style="stroke:#c00;stroke-width:2;"/>
   <rect width="105" height="20" x="55" y="11" style="fill:#007;stroke:black;"/>
   <text width="105" height="20" x="60" y="25" style="fill:#fff;" font-family="Arial" font-size="16px"> AccessToken</text>
   <rect width="105" height="20" x="55" y="31" style="fill:none;stroke:black;"/>
   <text width="105" height="20" x="60" y="45" style="fill:black;" font-family="Arial" font-size="16px">id</text>
   <rect width="105" height="20" x="55" y="51" style="fill:none;stroke:black;"/>
   <text width="105" height="20" x="60" y="65" style="fill:black;" font-family="Arial" font-size="16px">ttl</text>
   <rect width="105" height="20" x="55" y="71" style="fill:none;stroke:black;"/>
   <text width="105" height="20" x="60" y="85" style="fill:black;" font-family="Arial" font-size="16px">scopes</text>
   <rect width="105" height="20" x="55" y="91" style="fill:none;stroke:black;"/>
   <text width="105" height="20" x="60" y="105" style="fill:black;" font-family="Arial" font-size="16px">created</text>
   <rect width="105" height="20" x="55" y="111" style="fill:none;stroke:black;"/>
   <text width="105" height="20" x="60" y="125" style="fill:black;" font-family="Arial" font-size="16px">userId</text>
   <rect width="106" height="20" x="1129" y="149" style="fill:#007;stroke:black;"/>
   <text width="106" height="20" x="1134" y="163" style="fill:#fff;" font-family="Arial" font-size="16px"> ACL</text>
   <rect width="106" height="20" x="1129" y="169" style="fill:#aea;stroke:black;"/>
   <text width="106" height="20" x="1134" y="183" style="fill:black;" font-family="Arial" font-size="16px">id</text>
   <rect width="106" height="20" x="1129" y="189" style="fill:none;stroke:black;"/>
   <text width="106" height="20" x="1134" y="203" style="fill:black;" font-family="Arial" font-size="16px">model</text>
   <rect width="106" height="20" x="1129" y="209" style="fill:none;stroke:black;"/>
   <text width="106" height="20" x="1134" y="223" style="fill:black;" font-family="Arial" font-size="16px">property</text>
   <rect width="106" height="20" x="1129" y="229" style="fill:none;stroke:black;"/>
   <text width="106" height="20" x="1134" y="243" style="fill:black;" font-family="Arial" font-size="16px">accessType</text>
   <rect width="106" height="20" x="1129" y="249" style="fill:none;stroke:black;"/>
   <text width="106" height="20" x="1134" y="263" style="fill:black;" font-family="Arial" font-size="16px">permission</text>
   <rect width="106" height="20" x="1129" y="269" style="fill:none;stroke:black;"/>
   <text width="106" height="20" x="1134" y="283" style="fill:black;" font-family="Arial" font-size="16px">principalType</text>
   <rect width="106" height="20" x="1129" y="289" style="fill:none;stroke:black;"/>
   <text width="106" height="20" x="1134" y="303" style="fill:black;" font-family="Arial" font-size="16px">principalId</text>
   <rect width="97" height="20" x="424" y="227" style="fill:#007;stroke:black;"/>
   <text width="97" height="20" x="429" y="241" style="fill:#fff;" font-family="Arial" font-size="16px"> book</text>
   <rect width="97" height="20" x="424" y="247" style="fill:#aea;stroke:black;"/>
   <text width="97" height="20" x="429" y="261" style="fill:black;" font-family="Arial" font-size="16px">id</text>
   <rect width="97" height="20" x="424" y="267" style="fill:none;stroke:black;"/>
   <text width="97" height="20" x="429" y="281" style="fill:black;" font-family="Arial" font-size="16px">title</text>
   <rect width="97" height="20" x="424" y="287" style="fill:none;stroke:black;"/>
   <text width="97" height="20" x="429" y="301" style="fill:black;" font-family="Arial" font-size="16px">isbn</text>
   <rect width="97" height="20" x="424" y="307" style="fill:none;stroke:black;"/>
   <text width="97" height="20" x="429" y="321" style="fill:black;" font-family="Arial" font-size="16px">publisher</text>
   <rect width="97" height="20" x="424" y="327" style="fill:none;stroke:black;"/>
   <text width="97" height="20" x="429" y="341" style="fill:black;" font-family="Arial" font-size="16px">language</text>
   <rect width="97" height="20" x="424" y="347" style="fill:none;stroke:black;"/>
   <text width="97" height="20" x="429" y="361" style="fill:black;" font-family="Arial" font-size="16px">authors</text>
   <rect width="97" height="20" x="424" y="367" style="fill:none;stroke:black;"/>
   <text width="97" height="20" x="429" y="381" style="fill:black;" font-family="Arial" font-size="16px">synopsys</text>
   <rect width="97" height="20" x="424" y="387" style="fill:none;stroke:black;"/>
   <text width="97" height="20" x="429" y="401" style="fill:black;" font-family="Arial" font-size="16px">pages</text>
   <rect width="97" height="20" x="424" y="407" style="fill:none;stroke:black;"/>
   <text width="97" height="20" x="429" y="421" style="fill:black;" font-family="Arial" font-size="16px">gender_id</text>
   <rect width="97" height="20" x="424" y="427" style="fill:none;stroke:black;"/>
   <text width="97" height="20" x="429" y="441" style="fill:black;" font-family="Arial" font-size="16px">publish_date</text>
   <rect width="97" height="20" x="424" y="447" style="fill:none;stroke:black;"/>
   <text width="97" height="20" x="429" y="461" style="fill:black;" font-family="Arial" font-size="16px">available</text>
   <rect width="97" height="20" x="424" y="467" style="fill:none;stroke:black;"/>
   <text width="97" height="20" x="429" y="481" style="fill:black;" font-family="Arial" font-size="16px">image</text>
   <rect width="97" height="20" x="424" y="487" style="fill:none;stroke:black;"/>
   <text width="97" height="20" x="429" y="501" style="fill:black;" font-family="Arial" font-size="16px">created_at</text>
   <rect width="97" height="20" x="424" y="507" style="fill:none;stroke:black;"/>
   <text width="97" height="20" x="429" y="521" style="fill:black;" font-family="Arial" font-size="16px">updated_at</text>
   <rect width="97" height="20" x="424" y="527" style="fill:none;stroke:black;"/>
   <text width="97" height="20" x="429" y="541" style="fill:black;" font-family="Arial" font-size="16px">deleted_at</text>
   <rect width="128" height="20" x="647" y="222" style="fill:#007;stroke:black;"/>
   <text width="128" height="20" x="652" y="236" style="fill:#fff;" font-family="Arial" font-size="16px"> book_condition</text>
   <rect width="128" height="20" x="647" y="242" style="fill:#aea;stroke:black;"/>
   <text width="128" height="20" x="652" y="256" style="fill:black;" font-family="Arial" font-size="16px">id</text>
   <rect width="128" height="20" x="647" y="262" style="fill:none;stroke:black;"/>
   <text width="128" height="20" x="652" y="276" style="fill:black;" font-family="Arial" font-size="16px">book_id</text>
   <rect width="128" height="20" x="647" y="282" style="fill:none;stroke:black;"/>
   <text width="128" height="20" x="652" y="296" style="fill:black;" font-family="Arial" font-size="16px">condition_id</text>
   <rect width="128" height="20" x="647" y="302" style="fill:none;stroke:black;"/>
   <text width="128" height="20" x="652" y="316" style="fill:black;" font-family="Arial" font-size="16px">personal_opinion</text>
   <rect width="128" height="20" x="647" y="322" style="fill:none;stroke:black;"/>
   <text width="128" height="20" x="652" y="336" style="fill:black;" font-family="Arial" font-size="16px">created_at</text>
   <rect width="128" height="20" x="647" y="342" style="fill:none;stroke:black;"/>
   <text width="128" height="20" x="652" y="356" style="fill:black;" font-family="Arial" font-size="16px">updated_at</text>
   <rect width="128" height="20" x="647" y="362" style="fill:none;stroke:black;"/>
   <text width="128" height="20" x="652" y="376" style="fill:black;" font-family="Arial" font-size="16px">deleted_at</text>
   <rect width="92" height="20" x="498" y="19" style="fill:#007;stroke:black;"/>
   <text width="92" height="20" x="503" y="33" style="fill:#fff;" font-family="Arial" font-size="16px"> city</text>
   <rect width="92" height="20" x="498" y="39" style="fill:#aea;stroke:black;"/>
   <text width="92" height="20" x="503" y="53" style="fill:black;" font-family="Arial" font-size="16px">id</text>
   <rect width="92" height="20" x="498" y="59" style="fill:none;stroke:black;"/>
   <text width="92" height="20" x="503" y="73" style="fill:black;" font-family="Arial" font-size="16px">name</text>
   <rect width="92" height="20" x="498" y="79" style="fill:none;stroke:black;"/>
   <text width="92" height="20" x="503" y="93" style="fill:black;" font-family="Arial" font-size="16px">postal_code</text>
   <rect width="92" height="20" x="498" y="99" style="fill:none;stroke:black;"/>
   <text width="92" height="20" x="503" y="113" style="fill:black;" font-family="Arial" font-size="16px">province_id</text>
   <rect width="92" height="20" x="498" y="119" style="fill:none;stroke:black;"/>
   <text width="92" height="20" x="503" y="133" style="fill:black;" font-family="Arial" font-size="16px">created_at</text>
   <rect width="92" height="20" x="498" y="139" style="fill:none;stroke:black;"/>
   <text width="92" height="20" x="503" y="153" style="fill:black;" font-family="Arial" font-size="16px">updated_at</text>
   <rect width="92" height="20" x="498" y="159" style="fill:none;stroke:black;"/>
   <text width="92" height="20" x="503" y="173" style="fill:black;" font-family="Arial" font-size="16px">deleted_at</text>
   <rect width="88" height="20" x="907" y="239" style="fill:#007;stroke:black;"/>
   <text width="88" height="20" x="912" y="253" style="fill:#fff;" font-family="Arial" font-size="16px"> condition</text>
   <rect width="88" height="20" x="907" y="259" style="fill:#aea;stroke:black;"/>
   <text width="88" height="20" x="912" y="273" style="fill:black;" font-family="Arial" font-size="16px">id</text>
   <rect width="88" height="20" x="907" y="279" style="fill:none;stroke:black;"/>
   <text width="88" height="20" x="912" y="293" style="fill:black;" font-family="Arial" font-size="16px">description</text>
   <rect width="88" height="20" x="907" y="299" style="fill:none;stroke:black;"/>
   <text width="88" height="20" x="912" y="313" style="fill:black;" font-family="Arial" font-size="16px">created_at</text>
   <rect width="88" height="20" x="907" y="319" style="fill:none;stroke:black;"/>
   <text width="88" height="20" x="912" y="333" style="fill:black;" font-family="Arial" font-size="16px">updated_at</text>
   <rect width="88" height="20" x="907" y="339" style="fill:none;stroke:black;"/>
   <text width="88" height="20" x="912" y="353" style="fill:black;" font-family="Arial" font-size="16px">deleted_at</text>
   <rect width="102" height="20" x="919" y="25" style="fill:#007;stroke:black;"/>
   <text width="102" height="20" x="924" y="39" style="fill:#fff;" font-family="Arial" font-size="16px"> country</text>
   <rect width="102" height="20" x="919" y="45" style="fill:#aea;stroke:black;"/>
   <text width="102" height="20" x="924" y="59" style="fill:black;" font-family="Arial" font-size="16px">id</text>
   <rect width="102" height="20" x="919" y="65" style="fill:none;stroke:black;"/>
   <text width="102" height="20" x="924" y="79" style="fill:black;" font-family="Arial" font-size="16px">country_code</text>
   <rect width="102" height="20" x="919" y="85" style="fill:none;stroke:black;"/>
   <text width="102" height="20" x="924" y="99" style="fill:black;" font-family="Arial" font-size="16px">name</text>
   <rect width="102" height="20" x="919" y="105" style="fill:none;stroke:black;"/>
   <text width="102" height="20" x="924" y="119" style="fill:black;" font-family="Arial" font-size="16px">code</text>
   <rect width="102" height="20" x="919" y="125" style="fill:none;stroke:black;"/>
   <text width="102" height="20" x="924" y="139" style="fill:black;" font-family="Arial" font-size="16px">created_at</text>
   <rect width="102" height="20" x="919" y="145" style="fill:none;stroke:black;"/>
   <text width="102" height="20" x="924" y="159" style="fill:black;" font-family="Arial" font-size="16px">updated_at</text>
   <rect width="102" height="20" x="919" y="165" style="fill:none;stroke:black;"/>
   <text width="102" height="20" x="924" y="179" style="fill:black;" font-family="Arial" font-size="16px">deleted_at</text>
   <rect width="86" height="20" x="700" y="434" style="fill:#007;stroke:black;"/>
   <text width="86" height="20" x="705" y="448" style="fill:#fff;" font-family="Arial" font-size="16px"> gender</text>
   <rect width="86" height="20" x="700" y="454" style="fill:#aea;stroke:black;"/>
   <text width="86" height="20" x="705" y="468" style="fill:black;" font-family="Arial" font-size="16px">id</text>
   <rect width="86" height="20" x="700" y="474" style="fill:none;stroke:black;"/>
   <text width="86" height="20" x="705" y="488" style="fill:black;" font-family="Arial" font-size="16px">name</text>
   <rect width="86" height="20" x="700" y="494" style="fill:none;stroke:black;"/>
   <text width="86" height="20" x="705" y="508" style="fill:black;" font-family="Arial" font-size="16px">created_at</text>
   <rect width="86" height="20" x="700" y="514" style="fill:none;stroke:black;"/>
   <text width="86" height="20" x="705" y="528" style="fill:black;" font-family="Arial" font-size="16px">updated_at</text>
   <rect width="86" height="20" x="700" y="534" style="fill:none;stroke:black;"/>
   <text width="86" height="20" x="705" y="548" style="fill:black;" font-family="Arial" font-size="16px">deleted_at</text>
   <rect width="86" height="20" x="289" y="25" style="fill:#007;stroke:black;"/>
   <text width="86" height="20" x="294" y="39" style="fill:#fff;" font-family="Arial" font-size="16px"> location</text>
   <rect width="86" height="20" x="289" y="45" style="fill:#aea;stroke:black;"/>
   <text width="86" height="20" x="294" y="59" style="fill:black;" font-family="Arial" font-size="16px">id</text>
   <rect width="86" height="20" x="289" y="65" style="fill:none;stroke:black;"/>
   <text width="86" height="20" x="294" y="79" style="fill:black;" font-family="Arial" font-size="16px">latitude</text>
   <rect width="86" height="20" x="289" y="85" style="fill:none;stroke:black;"/>
   <text width="86" height="20" x="294" y="99" style="fill:black;" font-family="Arial" font-size="16px">longitude</text>
   <rect width="86" height="20" x="289" y="105" style="fill:none;stroke:black;"/>
   <text width="86" height="20" x="294" y="119" style="fill:black;" font-family="Arial" font-size="16px">city_cp</text>
   <rect width="86" height="20" x="289" y="125" style="fill:none;stroke:black;"/>
   <text width="86" height="20" x="294" y="139" style="fill:black;" font-family="Arial" font-size="16px">user_id</text>
   <rect width="86" height="20" x="289" y="145" style="fill:none;stroke:black;"/>
   <text width="86" height="20" x="294" y="159" style="fill:black;" font-family="Arial" font-size="16px">created_at</text>
   <rect width="86" height="20" x="289" y="165" style="fill:none;stroke:black;"/>
   <text width="86" height="20" x="294" y="179" style="fill:black;" font-family="Arial" font-size="16px">updated_at</text>
   <rect width="86" height="20" x="289" y="185" style="fill:none;stroke:black;"/>
   <text width="86" height="20" x="294" y="199" style="fill:black;" font-family="Arial" font-size="16px">deleted_at</text>
   <rect width="97" height="20" x="698" y="17" style="fill:#007;stroke:black;"/>
   <text width="97" height="20" x="703" y="31" style="fill:#fff;" font-family="Arial" font-size="16px"> province</text>
   <rect width="97" height="20" x="698" y="37" style="fill:#aea;stroke:black;"/>
   <text width="97" height="20" x="703" y="51" style="fill:black;" font-family="Arial" font-size="16px">id</text>
   <rect width="97" height="20" x="698" y="57" style="fill:none;stroke:black;"/>
   <text width="97" height="20" x="703" y="71" style="fill:black;" font-family="Arial" font-size="16px">name</text>
   <rect width="97" height="20" x="698" y="77" style="fill:none;stroke:black;"/>
   <text width="97" height="20" x="703" y="91" style="fill:black;" font-family="Arial" font-size="16px">code31662</text>
   <rect width="97" height="20" x="698" y="97" style="fill:none;stroke:black;"/>
   <text width="97" height="20" x="703" y="111" style="fill:black;" font-family="Arial" font-size="16px">country_id</text>
   <rect width="97" height="20" x="698" y="117" style="fill:none;stroke:black;"/>
   <text width="97" height="20" x="703" y="131" style="fill:black;" font-family="Arial" font-size="16px">abbreviation</text>
   <rect width="97" height="20" x="698" y="137" style="fill:none;stroke:black;"/>
   <text width="97" height="20" x="703" y="151" style="fill:black;" font-family="Arial" font-size="16px">created_at</text>
   <rect width="97" height="20" x="698" y="157" style="fill:none;stroke:black;"/>
   <text width="97" height="20" x="703" y="171" style="fill:black;" font-family="Arial" font-size="16px">updated_at</text>
   <rect width="97" height="20" x="698" y="177" style="fill:none;stroke:black;"/>
   <text width="97" height="20" x="703" y="191" style="fill:black;" font-family="Arial" font-size="16px">deleted_at</text>
   <rect width="88" height="20" x="1131" y="33" style="fill:#007;stroke:black;"/>
   <text width="88" height="20" x="1136" y="47" style="fill:#fff;" font-family="Arial" font-size="16px"> Role</text>
   <rect width="88" height="20" x="1131" y="53" style="fill:#aea;stroke:black;"/>
   <text width="88" height="20" x="1136" y="67" style="fill:black;" font-family="Arial" font-size="16px">id</text>
   <rect width="88" height="20" x="1131" y="73" style="fill:none;stroke:black;"/>
   <text width="88" height="20" x="1136" y="87" style="fill:black;" font-family="Arial" font-size="16px">name</text>
   <rect width="88" height="20" x="1131" y="93" style="fill:none;stroke:black;"/>
   <text width="88" height="20" x="1136" y="107" style="fill:black;" font-family="Arial" font-size="16px">description</text>
   <rect width="88" height="20" x="1131" y="113" style="fill:none;stroke:black;"/>
   <text width="88" height="20" x="1136" y="127" style="fill:black;" font-family="Arial" font-size="16px">created</text>
   <rect width="88" height="20" x="1131" y="133" style="fill:none;stroke:black;"/>
   <text width="88" height="20" x="1136" y="147" style="fill:black;" font-family="Arial" font-size="16px">modified</text>
   <rect width="106" height="20" x="51" y="148" style="fill:#007;stroke:black;"/>
   <text width="106" height="20" x="56" y="162" style="fill:#fff;" font-family="Arial" font-size="16px"> RoleMapping</text>
   <rect width="106" height="20" x="51" y="168" style="fill:#aea;stroke:black;"/>
   <text width="106" height="20" x="56" y="182" style="fill:black;" font-family="Arial" font-size="16px">id</text>
   <rect width="106" height="20" x="51" y="188" style="fill:none;stroke:black;"/>
   <text width="106" height="20" x="56" y="202" style="fill:black;" font-family="Arial" font-size="16px">principalType</text>
   <rect width="106" height="20" x="51" y="208" style="fill:none;stroke:black;"/>
   <text width="106" height="20" x="56" y="222" style="fill:black;" font-family="Arial" font-size="16px">principalId</text>
   <rect width="106" height="20" x="51" y="228" style="fill:none;stroke:black;"/>
   <text width="106" height="20" x="56" y="242" style="fill:black;" font-family="Arial" font-size="16px">roleId</text>
   <rect width="145" height="20" x="507" y="571" style="fill:#007;stroke:black;"/>
   <text width="145" height="20" x="512" y="585" style="fill:#fff;" font-family="Arial" font-size="16px"> transaction</text>
   <rect width="145" height="20" x="507" y="591" style="fill:#aea;stroke:black;"/>
   <text width="145" height="20" x="512" y="605" style="fill:black;" font-family="Arial" font-size="16px">id</text>
   <rect width="145" height="20" x="507" y="611" style="fill:none;stroke:black;"/>
   <text width="145" height="20" x="512" y="625" style="fill:black;" font-family="Arial" font-size="16px">book_id</text>
   <rect width="145" height="20" x="507" y="631" style="fill:none;stroke:black;"/>
   <text width="145" height="20" x="512" y="645" style="fill:black;" font-family="Arial" font-size="16px">transaction_state_id</text>
   <rect width="145" height="20" x="507" y="651" style="fill:none;stroke:black;"/>
   <text width="145" height="20" x="512" y="665" style="fill:black;" font-family="Arial" font-size="16px">created_at</text>
   <rect width="145" height="20" x="507" y="671" style="fill:none;stroke:black;"/>
   <text width="145" height="20" x="512" y="685" style="fill:black;" font-family="Arial" font-size="16px">updated_at</text>
   <rect width="145" height="20" x="507" y="691" style="fill:none;stroke:black;"/>
   <text width="145" height="20" x="512" y="705" style="fill:black;" font-family="Arial" font-size="16px">deleted_at</text>
   <rect width="145" height="20" x="507" y="711" style="fill:none;stroke:black;"/>
   <text width="145" height="20" x="512" y="725" style="fill:black;" font-family="Arial" font-size="16px">tokenQR</text>
   <rect width="145" height="20" x="507" y="731" style="fill:none;stroke:black;"/>
   <text width="145" height="20" x="512" y="745" style="fill:black;" font-family="Arial" font-size="16px">token_created_at</text>
   <rect width="127" height="20" x="735" y="596" style="fill:#007;stroke:black;"/>
   <text width="127" height="20" x="740" y="610" style="fill:#fff;" font-family="Arial" font-size="16px"> transaction_state</text>
   <rect width="127" height="20" x="735" y="616" style="fill:#aea;stroke:black;"/>
   <text width="127" height="20" x="740" y="630" style="fill:black;" font-family="Arial" font-size="16px">id</text>
   <rect width="127" height="20" x="735" y="636" style="fill:none;stroke:black;"/>
   <text width="127" height="20" x="740" y="650" style="fill:black;" font-family="Arial" font-size="16px">transaction_id</text>
   <rect width="127" height="20" x="735" y="656" style="fill:none;stroke:black;"/>
   <text width="127" height="20" x="740" y="670" style="fill:black;" font-family="Arial" font-size="16px">name</text>
   <rect width="127" height="20" x="735" y="676" style="fill:none;stroke:black;"/>
   <text width="127" height="20" x="740" y="690" style="fill:black;" font-family="Arial" font-size="16px">description</text>
   <rect width="127" height="20" x="735" y="696" style="fill:none;stroke:black;"/>
   <text width="127" height="20" x="740" y="710" style="fill:black;" font-family="Arial" font-size="16px">created_at</text>
   <rect width="127" height="20" x="735" y="716" style="fill:none;stroke:black;"/>
   <text width="127" height="20" x="740" y="730" style="fill:black;" font-family="Arial" font-size="16px">updated_at</text>
   <rect width="127" height="20" x="735" y="736" style="fill:none;stroke:black;"/>
   <text width="127" height="20" x="740" y="750" style="fill:black;" font-family="Arial" font-size="16px">deleted_at</text>
   <rect width="131" height="20" x="30" y="311" style="fill:#007;stroke:black;"/>
   <text width="131" height="20" x="35" y="325" style="fill:#fff;" font-family="Arial" font-size="16px"> user</text>
   <rect width="131" height="20" x="30" y="331" style="fill:#aea;stroke:black;"/>
   <text width="131" height="20" x="35" y="345" style="fill:black;" font-family="Arial" font-size="16px">id</text>
   <rect width="131" height="20" x="30" y="351" style="fill:none;stroke:black;"/>
   <text width="131" height="20" x="35" y="365" style="fill:black;" font-family="Arial" font-size="16px">username</text>
   <rect width="131" height="20" x="30" y="371" style="fill:none;stroke:black;"/>
   <text width="131" height="20" x="35" y="385" style="fill:black;" font-family="Arial" font-size="16px">firstname</text>
   <rect width="131" height="20" x="30" y="391" style="fill:none;stroke:black;"/>
   <text width="131" height="20" x="35" y="405" style="fill:black;" font-family="Arial" font-size="16px">lastname</text>
   <rect width="131" height="20" x="30" y="411" style="fill:none;stroke:black;"/>
   <text width="131" height="20" x="35" y="425" style="fill:black;" font-family="Arial" font-size="16px">email</text>
   <rect width="131" height="20" x="30" y="431" style="fill:none;stroke:black;"/>
   <text width="131" height="20" x="35" y="445" style="fill:black;" font-family="Arial" font-size="16px">password</text>
   <rect width="131" height="20" x="30" y="451" style="fill:none;stroke:black;"/>
   <text width="131" height="20" x="35" y="465" style="fill:black;" font-family="Arial" font-size="16px">phone</text>
   <rect width="131" height="20" x="30" y="471" style="fill:none;stroke:black;"/>
   <text width="131" height="20" x="35" y="485" style="fill:black;" font-family="Arial" font-size="16px">created_at</text>
   <rect width="131" height="20" x="30" y="491" style="fill:none;stroke:black;"/>
   <text width="131" height="20" x="35" y="505" style="fill:black;" font-family="Arial" font-size="16px">updated_at</text>
   <rect width="131" height="20" x="30" y="511" style="fill:none;stroke:black;"/>
   <text width="131" height="20" x="35" y="525" style="fill:black;" font-family="Arial" font-size="16px">deleted_at</text>
   <rect width="131" height="20" x="30" y="531" style="fill:none;stroke:black;"/>
   <text width="131" height="20" x="35" y="545" style="fill:black;" font-family="Arial" font-size="16px">realm</text>
   <rect width="131" height="20" x="30" y="551" style="fill:none;stroke:black;"/>
   <text width="131" height="20" x="35" y="565" style="fill:black;" font-family="Arial" font-size="16px">email_verified</text>
   <rect width="131" height="20" x="30" y="571" style="fill:none;stroke:black;"/>
   <text width="131" height="20" x="35" y="585" style="fill:black;" font-family="Arial" font-size="16px">verification_token</text>
   <rect width="86" height="20" x="34" y="595" style="fill:#007;stroke:black;"/>
   <text width="86" height="20" x="39" y="609" style="fill:#fff;" font-family="Arial" font-size="16px"> user_book</text>
   <rect width="86" height="20" x="34" y="615" style="fill:#aea;stroke:black;"/>
   <text width="86" height="20" x="39" y="629" style="fill:black;" font-family="Arial" font-size="16px">id</text>
   <rect width="86" height="20" x="34" y="635" style="fill:none;stroke:black;"/>
   <text width="86" height="20" x="39" y="649" style="fill:black;" font-family="Arial" font-size="16px">is_owner</text>
   <rect width="86" height="20" x="34" y="655" style="fill:none;stroke:black;"/>
   <text width="86" height="20" x="39" y="669" style="fill:black;" font-family="Arial" font-size="16px">user_id</text>
   <rect width="86" height="20" x="34" y="675" style="fill:none;stroke:black;"/>
   <text width="86" height="20" x="39" y="689" style="fill:black;" font-family="Arial" font-size="16px">book_id</text>
   <rect width="86" height="20" x="34" y="695" style="fill:none;stroke:black;"/>
   <text width="86" height="20" x="39" y="709" style="fill:black;" font-family="Arial" font-size="16px">created_at</text>
   <rect width="86" height="20" x="34" y="715" style="fill:none;stroke:black;"/>
   <text width="86" height="20" x="39" y="729" style="fill:black;" font-family="Arial" font-size="16px">updated_at</text>
   <rect width="86" height="20" x="34" y="735" style="fill:none;stroke:black;"/>
   <text width="86" height="20" x="39" y="749" style="fill:black;" font-family="Arial" font-size="16px">deleted_at</text>
   <rect width="120" height="20" x="254" y="587" style="fill:#007;stroke:black;"/>
   <text width="120" height="20" x="259" y="601" style="fill:#fff;" font-family="Arial" font-size="16px"> user_transaction</text>
   <rect width="120" height="20" x="254" y="607" style="fill:#aea;stroke:black;"/>
   <text width="120" height="20" x="259" y="621" style="fill:black;" font-family="Arial" font-size="16px">id</text>
   <rect width="120" height="20" x="254" y="627" style="fill:none;stroke:black;"/>
   <text width="120" height="20" x="259" y="641" style="fill:black;" font-family="Arial" font-size="16px">from_user_id</text>
   <rect width="120" height="20" x="254" y="647" style="fill:none;stroke:black;"/>
   <text width="120" height="20" x="259" y="661" style="fill:black;" font-family="Arial" font-size="16px">to_user_id</text>
   <rect width="120" height="20" x="254" y="667" style="fill:none;stroke:black;"/>
   <text width="120" height="20" x="259" y="681" style="fill:black;" font-family="Arial" font-size="16px">transaction_id</text>
   <rect width="120" height="20" x="254" y="687" style="fill:none;stroke:black;"/>
   <text width="120" height="20" x="259" y="701" style="fill:black;" font-family="Arial" font-size="16px">created_at</text>
   <rect width="120" height="20" x="254" y="707" style="fill:none;stroke:black;"/>
   <text width="120" height="20" x="259" y="721" style="fill:black;" font-family="Arial" font-size="16px">updated_at</text>
   <rect width="120" height="20" x="254" y="727" style="fill:none;stroke:black;"/>
   <text width="120" height="20" x="259" y="741" style="fill:black;" font-family="Arial" font-size="16px">deleted_at</text>
</svg>
